<?xml version="1.0" encoding="UTF-8" standalone="no"?>
<!DOCTYPE svg PUBLIC "-//W3C//DTD SVG 1.1//EN" "http://www.w3.org/Graphics/SVG/1.1/DTD/svg11.dtd">
<svg width="100%" height="100%" viewBox="0 0 500 490" version="1.1" xmlns="http://www.w3.org/2000/svg" xmlns:xlink="http://www.w3.org/1999/xlink" xml:space="preserve" xmlns:serif="http://www.serif.com/" style="fill-rule:evenodd;clip-rule:evenodd;stroke-linejoin:round;stroke-miterlimit:2;">
    <g transform="matrix(1,0,0,1,0,-1275.886664)">
        <g id="icon" transform="matrix(1,0,0,0.97929,0,1275.886664)">
            <rect x="0" y="0" width="500" height="500" style="fill:none;"/>
            <g transform="matrix(1.333933,0,0,1.362143,-98.76463,-97.851278)">
                <path d="M74.04,203.076L261.456,255.371L261.456,438.087L111.16,365.709L74.04,203.076Z" style="fill:rgb(129,137,181);"/>
            </g>
            <g transform="matrix(-1.333933,0,0,1.362143,598.76463,-97.851278)">
                <path d="M74.04,203.076L261.456,255.371L261.456,438.087L111.16,365.709L74.04,203.076Z" style="fill:rgb(194,198,221);"/>
            </g>
            <g transform="matrix(1.333933,0,0,1.362143,-98.76463,-97.851278)">
                <path d="M178.048,72.654L74.04,203.076L261.456,255.371L448.872,203.076L344.864,72.654L178.048,72.654Z" style="fill:white;"/>
            </g>
        </g>
    </g>
</svg>
